<svg xmlns="http://www.w3.org/2000/svg" version="1.1" xmlns:xlink="http://www.w3.org/1999/xlink" xmlns:svgjs="http://svgjs.com/svgjs" width="1000" height="1000"><rect width="1000" height="1000" rx="200" ry="200" fill="#ffffff"></rect><g transform="matrix(6.4,0,0,6.4,179.72493667602538,165.43752975463866)"><svg xmlns="http://www.w3.org/2000/svg" version="1.1" xmlns:xlink="http://www.w3.org/1999/xlink" xmlns:svgjs="http://svgjs.com/svgjs" width="100" height="125"><svg xmlns="http://www.w3.org/2000/svg" xmlns:xlink="http://www.w3.org/1999/xlink" version="1.1" x="0px" y="0px" viewBox="0 0 100 125" enable-background="new 0 0 100 100" xml:space="preserve"><path fill="#000000" d="M30.39,66.857c3.559-1.44,7.1-4.148,12.036-5.677c3.261-1.004,14.915,0.394,15.938,0.535  c1.021,0.143,4.05,0.771,8.119,2.812c0,0,0.006,0,0.007,0.005c2.35,1.76,5.158,2.965,8.271,3.392  c9.806,1.355,18.843-5.498,20.199-15.296c1.351-9.806-5.504-18.849-15.306-20.199c-4.335-0.599-8.517,0.412-11.954,2.569  c0,0-0.008,0-0.012,0.003c-2.085,1.126-6.146,3.662-8.913,4.114c-2.765,0.448-12.814,0.932-15.666,0.54  c-2.854-0.393-4.052-0.766-11.455-4.695l-0.006,0.007c-1.896-1.062-4.018-1.813-6.305-2.128  c-9.802-1.351-18.852,5.499-20.201,15.302c-1.351,9.803,5.498,18.846,15.304,20.195c3.5,0.485,6.898-0.094,9.89-1.467  C30.355,66.868,30.369,66.868,30.39,66.857z M21.746,58.955c-4.624-0.635-7.85-4.899-7.216-9.519  c0.641-4.62,4.895-7.852,9.518-7.211c4.622,0.637,7.854,4.897,7.214,9.517C30.625,56.358,26.363,59.592,21.746,58.955z   M76.059,58.544c-4.62-0.639-7.848-4.898-7.212-9.518c0.634-4.624,4.898-7.848,9.518-7.213c4.618,0.635,7.85,4.897,7.209,9.521  C84.938,55.952,80.677,59.184,76.059,58.544z"></path></svg></svg></g></svg>