<svg version="1.1" id="Layer_1" xmlns="http://www.w3.org/2000/svg" xmlns:xlink="http://www.w3.org/1999/xlink" x="0px" y="0px"
	 width="100%" viewBox="0 500 1500 500" xml:space="preserve">
<path fill="#1D1D1B" opacity="1.000000" stroke="none" 
	d="
M838.000000,1501.000000 
	C558.666687,1501.000000 279.833435,1501.000000 1.000112,1501.000000 
	C1.000075,1001.000122 1.000075,501.000275 1.000037,1.000314 
	C500.999756,1.000209 1000.999512,1.000209 1500.999512,1.000105 
	C1500.999634,500.999664 1500.999634,1000.999329 1500.999756,1500.999512 
	C1280.166626,1501.000000 1059.333374,1501.000000 838.000000,1501.000000 
M1232.242188,632.829834 
	C1200.374878,636.801697 1173.271240,650.285217 1152.489014,674.831604 
	C1124.645508,707.718079 1118.691650,745.628479 1129.319336,786.721497 
	C1111.105469,786.721497 1093.188232,786.721497 1074.917725,786.721497 
	C1074.917725,736.518188 1074.917725,686.600403 1074.917725,636.416748 
	C1047.478516,636.416748 1020.395447,636.416748 992.893311,636.416748 
	C992.748657,638.402954 992.504639,640.194092 992.504150,641.985229 
	C992.484924,714.799561 992.525513,787.613953 992.396545,860.428040 
	C992.388550,864.947083 993.869812,865.929260 998.143982,865.916321 
	C1044.797974,865.774963 1091.452637,865.855957 1138.107056,865.817322 
	C1144.906860,865.811707 1151.706299,865.497192 1158.505981,865.325562 
	C1158.838013,858.447327 1159.205933,851.570618 1159.483887,844.690186 
	C1159.593262,841.985046 1159.501953,839.271851 1159.501953,835.536804 
	C1161.155029,836.850037 1161.782349,837.306824 1162.363647,837.816223 
	C1214.224365,883.265808 1291.825073,881.724548 1340.085571,832.669800 
	C1374.148560,798.045898 1382.074707,755.811646 1366.341309,710.351440 
	C1347.725220,656.562500 1292.133911,625.664490 1232.242188,632.829834 
M887.139526,714.390320 
	C887.139526,710.122742 887.139526,705.855164 887.139526,701.132935 
	C915.905334,701.132935 943.992371,701.132935 972.511475,701.132935 
	C972.511475,699.025391 972.511475,697.391113 972.511414,695.756836 
	C972.511292,678.257568 972.507446,660.758362 972.513062,643.259094 
	C972.515320,636.164246 972.524841,636.154114 965.482788,636.153809 
	C901.485596,636.151062 837.488342,636.147034 773.491150,636.154968 
	C751.790283,636.157654 735.596375,648.128418 729.165344,668.806274 
	C721.767395,692.592896 714.331543,716.367676 706.885132,740.139160 
	C706.383667,741.740112 705.653992,743.269531 704.699036,745.662781 
	C693.558472,710.052185 682.705261,675.513306 672.005249,640.927063 
	C670.903809,637.366699 669.367188,635.908447 665.430054,636.058167 
	C656.609985,636.393677 647.768250,636.153564 638.935303,636.152771 
	C619.793457,636.150940 600.651611,636.152161 580.974915,636.152161 
	C581.724365,638.242981 582.309204,639.940186 582.938843,641.620605 
	C589.701538,659.670227 596.588745,677.674622 603.142517,695.799683 
	C604.492981,699.534546 606.466919,701.010559 610.295837,701.800903 
	C646.856750,709.347778 662.405579,751.437012 639.510864,780.947998 
	C637.208618,783.915527 637.172485,786.188293 638.380432,789.368103 
	C647.706421,813.918701 656.978821,838.490540 666.068665,863.129211 
	C667.266174,866.375061 668.862427,867.278809 672.198853,867.254761 
	C693.530090,867.101135 714.863708,867.098328 736.194763,867.265320 
	C739.726318,867.292969 741.506165,866.220642 742.749756,862.885010 
	C759.471252,818.032959 776.304077,773.222412 793.124756,728.407349 
	C797.112366,717.783081 801.156555,707.179993 805.174683,696.567200 
	C805.450989,696.636597 805.727295,696.705994 806.003601,696.775391 
	C806.003601,699.060547 806.003723,701.345642 806.003662,703.630737 
	C806.001709,755.794800 806.044495,807.958984 805.912842,860.122681 
	C805.902283,864.297974 806.696716,865.953003 811.329529,865.939148 
	C863.326782,865.783569 915.324768,865.791077 967.322144,865.931641 
	C971.657532,865.943298 972.598083,864.408447 972.564758,860.440186 
	C972.406860,841.609070 972.511047,822.775879 972.494934,803.943420 
	C972.493835,802.688538 972.269165,801.433777 972.113525,799.815430 
	C943.678833,799.815430 915.587036,799.815430 887.489746,799.815430 
	C887.489746,793.673828 887.489746,787.939331 887.489746,781.855530 
	C915.911865,781.855530 944.009521,781.855530 972.148926,781.855530 
	C972.148926,760.941284 972.148926,740.389832 972.148926,719.477844 
	C969.286133,719.477844 966.809326,719.477844 964.332520,719.477844 
	C940.166931,719.477905 916.001099,719.435974 891.835876,719.529785 
	C888.721863,719.541809 886.510010,719.235291 887.139526,714.390320 
M226.153534,810.500183 
	C226.153534,803.371338 226.153534,796.242432 226.153534,788.803223 
	C241.531219,788.803223 256.417999,788.803223 271.845795,788.803223 
	C271.845795,790.825256 271.845795,792.619751 271.845795,794.414307 
	C271.846039,816.408203 271.975922,838.403442 271.739716,860.394775 
	C271.691071,864.920837 273.134949,865.959534 277.417328,865.927856 
	C302.242401,865.744263 327.070160,865.746399 351.895325,865.925110 
	C356.099579,865.955322 357.610962,865.098572 357.601318,860.482727 
	C357.449463,787.836609 357.499786,715.189941 357.488068,642.543457 
	C357.487762,640.587219 357.312714,638.630920 357.213959,636.566162 
	C355.997345,636.399719 355.197968,636.195557 354.398438,636.194763 
	C328.239105,636.169373 302.079468,636.217773 275.920715,636.089905 
	C272.428497,636.072876 271.784454,637.529114 271.802582,640.578064 
	C271.901398,657.239441 271.847534,673.901794 271.846558,690.563782 
	C271.846130,697.694397 271.846497,704.825012 271.846497,712.226562 
	C256.471375,712.226562 241.571564,712.226562 226.192688,712.226562 
	C226.192688,710.402466 226.193451,708.770996 226.192551,707.139526 
	C226.180374,685.145874 226.076660,663.151489 226.240311,641.159119 
	C226.269562,637.227661 225.205917,636.036987 221.193710,636.065063 
	C196.035263,636.241272 170.874237,636.249695 145.716003,636.058838 
	C141.467606,636.026611 140.434021,637.395081 140.439682,641.451172 
	C140.541962,714.763855 140.533356,788.076843 140.437317,861.389648 
	C140.432617,864.982422 141.649033,865.910400 145.054901,865.895874 
	C170.547348,865.786804 196.040909,865.764648 221.532944,865.916382 
	C225.387405,865.939270 226.268829,864.611206 226.230316,860.985596 
	C226.055069,844.492004 226.153534,827.995544 226.153534,810.500183 
M483.682465,798.024353 
	C481.658936,797.268127 479.590576,796.613220 477.618713,795.740356 
	C454.374573,785.451111 442.660522,759.204529 450.515961,735.084229 
	C458.456390,710.703064 483.534241,696.385437 508.539429,701.888062 
	C518.000305,703.969971 526.030212,708.690613 533.181519,715.207703 
	C548.477661,699.903381 563.506409,684.793518 578.648132,669.797668 
	C580.847473,667.619568 580.925720,666.090210 578.553406,664.176392 
	C573.127747,659.799316 568.097717,654.843262 562.320312,651.005554 
	C534.187134,632.317688 503.132843,628.544861 470.484528,633.941284 
	C416.996399,642.782410 376.019135,689.016479 373.976440,743.276245 
	C372.072723,793.843811 393.005341,832.139343 437.285065,856.917847 
	C461.962250,870.726929 488.826874,872.665100 516.276672,868.482117 
	C540.308777,864.819946 561.182556,854.528809 578.683472,837.501221 
	C581.124512,835.126221 581.408875,833.660645 578.790405,831.111084 
	C568.294800,820.892029 557.996399,810.469116 547.692078,800.055298 
	C542.920227,795.232727 538.302490,790.257751 533.522522,785.255188 
	C518.915833,798.371521 502.896973,803.045288 483.682465,798.024353 
M636.328064,757.685852 
	C640.721375,734.203857 623.834595,713.916626 599.971191,713.987000 
	C589.944519,714.016541 581.734314,718.042725 574.488831,724.821594 
	C559.579407,738.771179 538.863892,738.684021 524.064148,724.884705 
	C522.605103,723.524170 521.122192,722.151917 519.484680,721.026123 
	C506.813049,712.315369 493.426819,711.233826 479.971191,718.604492 
	C467.358734,725.513245 460.943024,736.899292 461.337677,751.109436 
	C461.766541,766.551453 469.358551,778.179565 483.948334,784.051270 
	C498.401123,789.867920 511.749084,787.148926 523.246582,776.593933 
	C539.436279,761.731384 559.451172,761.853455 575.550537,776.866821 
	C585.579224,786.219177 597.518188,789.215515 610.657227,785.383911 
	C624.179688,781.440491 632.744019,772.311340 636.328064,757.685852 
z"/>
<path fill="#FEFEFE" opacity="1.000000" stroke="none" 
	d="
M1232.687256,632.743530 
	C1292.133911,625.664490 1347.725220,656.562500 1366.341309,710.351440 
	C1382.074707,755.811646 1374.148560,798.045898 1340.085571,832.669800 
	C1291.825073,881.724548 1214.224365,883.265808 1162.363647,837.816223 
	C1161.782349,837.306824 1161.155029,836.850037 1159.501953,835.536804 
	C1159.501953,839.271851 1159.593262,841.985046 1159.483887,844.690186 
	C1159.205933,851.570618 1158.838013,858.447327 1158.505981,865.325562 
	C1151.706299,865.497192 1144.906860,865.811707 1138.107056,865.817322 
	C1091.452637,865.855957 1044.797974,865.774963 998.143982,865.916321 
	C993.869812,865.929260 992.388550,864.947083 992.396545,860.428040 
	C992.525513,787.613953 992.484924,714.799561 992.504150,641.985229 
	C992.504639,640.194092 992.748657,638.402954 992.893311,636.416748 
	C1020.395447,636.416748 1047.478516,636.416748 1074.917725,636.416748 
	C1074.917725,686.600403 1074.917725,736.518188 1074.917725,786.721497 
	C1093.188232,786.721497 1111.105469,786.721497 1129.319336,786.721497 
	C1118.691650,745.628479 1124.645508,707.718079 1152.489014,674.831604 
	C1173.271240,650.285217 1200.374878,636.801697 1232.687256,632.743530 
M1260.451050,708.881958 
	C1251.360352,706.259460 1242.322510,706.524109 1233.549316,709.990479 
	C1214.512207,717.512268 1204.476562,737.092163 1208.003906,759.404785 
	C1212.479858,787.720154 1243.536377,803.577820 1268.543091,790.073364 
	C1284.585205,781.409973 1291.366455,766.876892 1290.576294,749.418274 
	C1289.698608,730.024841 1280.420898,715.667786 1260.451050,708.881958 
z"/>
<path fill="#FEFEFE" opacity="1.000000" stroke="none" 
	d="
M887.147156,714.873657 
	C886.510010,719.235291 888.721863,719.541809 891.835876,719.529785 
	C916.001099,719.435974 940.166931,719.477905 964.332520,719.477844 
	C966.809326,719.477844 969.286133,719.477844 972.148926,719.477844 
	C972.148926,740.389832 972.148926,760.941284 972.148926,781.855530 
	C944.009521,781.855530 915.911865,781.855530 887.489746,781.855530 
	C887.489746,787.939331 887.489746,793.673828 887.489746,799.815430 
	C915.587036,799.815430 943.678833,799.815430 972.113525,799.815430 
	C972.269165,801.433777 972.493835,802.688538 972.494934,803.943420 
	C972.511047,822.775879 972.406860,841.609070 972.564758,860.440186 
	C972.598083,864.408447 971.657532,865.943298 967.322144,865.931641 
	C915.324768,865.791077 863.326782,865.783569 811.329529,865.939148 
	C806.696716,865.953003 805.902283,864.297974 805.912842,860.122681 
	C806.044495,807.958984 806.001709,755.794800 806.003662,703.630737 
	C806.003723,701.345642 806.003601,699.060547 806.003601,696.775391 
	C805.727295,696.705994 805.450989,696.636597 805.174683,696.567200 
	C801.156555,707.179993 797.112366,717.783081 793.124756,728.407349 
	C776.304077,773.222412 759.471252,818.032959 742.749756,862.885010 
	C741.506165,866.220642 739.726318,867.292969 736.194763,867.265320 
	C714.863708,867.098328 693.530090,867.101135 672.198853,867.254761 
	C668.862427,867.278809 667.266174,866.375061 666.068665,863.129211 
	C656.978821,838.490540 647.706421,813.918701 638.380432,789.368103 
	C637.172485,786.188293 637.208618,783.915527 639.510864,780.947998 
	C662.405579,751.437012 646.856750,709.347778 610.295837,701.800903 
	C606.466919,701.010559 604.492981,699.534546 603.142517,695.799683 
	C596.588745,677.674622 589.701538,659.670227 582.938843,641.620605 
	C582.309204,639.940186 581.724365,638.242981 580.974915,636.152161 
	C600.651611,636.152161 619.793457,636.150940 638.935303,636.152771 
	C647.768250,636.153564 656.609985,636.393677 665.430054,636.058167 
	C669.367188,635.908447 670.903809,637.366699 672.005249,640.927063 
	C682.705261,675.513306 693.558472,710.052185 704.699036,745.662781 
	C705.653992,743.269531 706.383667,741.740112 706.885132,740.139160 
	C714.331543,716.367676 721.767395,692.592896 729.165344,668.806274 
	C735.596375,648.128418 751.790283,636.157654 773.491150,636.154968 
	C837.488342,636.147034 901.485596,636.151062 965.482788,636.153809 
	C972.524841,636.154114 972.515320,636.164246 972.513062,643.259094 
	C972.507446,660.758362 972.511292,678.257568 972.511414,695.756836 
	C972.511475,697.391113 972.511475,699.025391 972.511475,701.132935 
	C943.992371,701.132935 915.905334,701.132935 887.139526,701.132935 
	C887.139526,705.855164 887.139526,710.122742 887.147156,714.873657 
z"/>
<path fill="#FEFEFE" opacity="1.000000" stroke="none" 
	d="
M226.153534,811.000122 
	C226.153534,827.995544 226.055069,844.492004 226.230316,860.985596 
	C226.268829,864.611206 225.387405,865.939270 221.532944,865.916382 
	C196.040909,865.764648 170.547348,865.786804 145.054901,865.895874 
	C141.649033,865.910400 140.432617,864.982422 140.437317,861.389648 
	C140.533356,788.076843 140.541962,714.763855 140.439682,641.451172 
	C140.434021,637.395081 141.467606,636.026611 145.716003,636.058838 
	C170.874237,636.249695 196.035263,636.241272 221.193710,636.065063 
	C225.205917,636.036987 226.269562,637.227661 226.240311,641.159119 
	C226.076660,663.151489 226.180374,685.145874 226.192551,707.139526 
	C226.193451,708.770996 226.192688,710.402466 226.192688,712.226562 
	C241.571564,712.226562 256.471375,712.226562 271.846497,712.226562 
	C271.846497,704.825012 271.846130,697.694397 271.846558,690.563782 
	C271.847534,673.901794 271.901398,657.239441 271.802582,640.578064 
	C271.784454,637.529114 272.428497,636.072876 275.920715,636.089905 
	C302.079468,636.217773 328.239105,636.169373 354.398438,636.194763 
	C355.197968,636.195557 355.997345,636.399719 357.213959,636.566162 
	C357.312714,638.630920 357.487762,640.587219 357.488068,642.543457 
	C357.499786,715.189941 357.449463,787.836609 357.601318,860.482727 
	C357.610962,865.098572 356.099579,865.955322 351.895325,865.925110 
	C327.070160,865.746399 302.242401,865.744263 277.417328,865.927856 
	C273.134949,865.959534 271.691071,864.920837 271.739716,860.394775 
	C271.975922,838.403442 271.846039,816.408203 271.845795,794.414307 
	C271.845795,792.619751 271.845795,790.825256 271.845795,788.803223 
	C256.417999,788.803223 241.531219,788.803223 226.153534,788.803223 
	C226.153534,796.242432 226.153534,803.371338 226.153534,811.000122 
z"/>
<path fill="#FEFEFE" opacity="1.000000" stroke="none" 
	d="
M484.081787,798.113831 
	C502.896973,803.045288 518.915833,798.371521 533.522522,785.255188 
	C538.302490,790.257751 542.920227,795.232727 547.692078,800.055298 
	C557.996399,810.469116 568.294800,820.892029 578.790405,831.111084 
	C581.408875,833.660645 581.124512,835.126221 578.683472,837.501221 
	C561.182556,854.528809 540.308777,864.819946 516.276672,868.482117 
	C488.826874,872.665100 461.962250,870.726929 437.285065,856.917847 
	C393.005341,832.139343 372.072723,793.843811 373.976440,743.276245 
	C376.019135,689.016479 416.996399,642.782410 470.484528,633.941284 
	C503.132843,628.544861 534.187134,632.317688 562.320312,651.005554 
	C568.097717,654.843262 573.127747,659.799316 578.553406,664.176392 
	C580.925720,666.090210 580.847473,667.619568 578.648132,669.797668 
	C563.506409,684.793518 548.477661,699.903381 533.181519,715.207703 
	C526.030212,708.690613 518.000305,703.969971 508.539429,701.888062 
	C483.534241,696.385437 458.456390,710.703064 450.515961,735.084229 
	C442.660522,759.204529 454.374573,785.451111 477.618713,795.740356 
	C479.590576,796.613220 481.658936,797.268127 484.081787,798.113831 
z"/>
<path fill="#FAFAFA" opacity="1.000000" stroke="none" 
	d="
M636.240845,758.106445 
	C632.744019,772.311340 624.179688,781.440491 610.657227,785.383911 
	C597.518188,789.215515 585.579224,786.219177 575.550537,776.866821 
	C559.451172,761.853455 539.436279,761.731384 523.246582,776.593933 
	C511.749084,787.148926 498.401123,789.867920 483.948334,784.051270 
	C469.358551,778.179565 461.766541,766.551453 461.337677,751.109436 
	C460.943024,736.899292 467.358734,725.513245 479.971191,718.604492 
	C493.426819,711.233826 506.813049,712.315369 519.484680,721.026123 
	C521.122192,722.151917 522.605103,723.524170 524.064148,724.884705 
	C538.863892,738.684021 559.579407,738.771179 574.488831,724.821594 
	C581.734314,718.042725 589.944519,714.016541 599.971191,713.987000 
	C623.834595,713.916626 640.721375,734.203857 636.240845,758.106445 
M577.306335,753.908569 
	C577.624390,755.200195 577.873230,756.513550 578.271423,757.779968 
	C581.506470,768.068604 593.089111,775.371094 603.606934,773.781128 
	C614.757019,772.095703 623.598328,762.572205 623.994812,751.820435 
	C624.508118,737.898010 614.153076,726.969116 600.472473,726.994629 
	C586.632263,727.020447 576.533569,738.329346 577.306335,753.908569 
M474.872589,745.561401 
	C472.866241,755.601196 477.302338,765.617981 486.015778,770.722717 
	C494.376862,775.621094 505.026154,774.753113 512.662476,768.550781 
	C520.232117,762.402771 523.217896,751.560242 519.868591,742.382935 
	C516.410522,732.907471 507.460358,726.879761 497.038147,727.007202 
	C486.852478,727.131714 478.675262,733.725525 474.872589,745.561401 
z"/>
<path fill="#1E1E1D" opacity="1.000000" stroke="none" 
	d="
M1260.851318,708.954468 
	C1280.420898,715.667786 1289.698608,730.024841 1290.576294,749.418274 
	C1291.366455,766.876892 1284.585205,781.409973 1268.543091,790.073364 
	C1243.536377,803.577820 1212.479858,787.720154 1208.003906,759.404785 
	C1204.476562,737.092163 1214.512207,717.512268 1233.549316,709.990479 
	C1242.322510,706.524109 1251.360352,706.259460 1260.851318,708.954468 
z"/>
<path fill="#1F1F1E" opacity="1.000000" stroke="none" 
	d="
M577.245850,753.490479 
	C576.533569,738.329346 586.632263,727.020447 600.472473,726.994629 
	C614.153076,726.969116 624.508118,737.898010 623.994812,751.820435 
	C623.598328,762.572205 614.757019,772.095703 603.606934,773.781128 
	C593.089111,775.371094 581.506470,768.068604 578.271423,757.779968 
	C577.873230,756.513550 577.624390,755.200195 577.245850,753.490479 
z"/>
<path fill="#1F1F1E" opacity="1.000000" stroke="none" 
	d="
M474.944885,745.162720 
	C478.675262,733.725525 486.852478,727.131714 497.038147,727.007202 
	C507.460358,726.879761 516.410522,732.907471 519.868591,742.382935 
	C523.217896,751.560242 520.232117,762.402771 512.662476,768.550781 
	C505.026154,774.753113 494.376862,775.621094 486.015778,770.722717 
	C477.302338,765.617981 472.866241,755.601196 474.944885,745.162720 
z"/>
</svg>
